<svg width="120" height="14" viewBox="0 0 120 14" version="1.1" xmlns="http://www.w3.org/2000/svg" xmlns:xlink="http://www.w3.org/1999/xlink">
<g id="Canvas" fill="none">
<g id="logo">
<g id="XMLID_234_">
<g id="XMLID_243_">
<path d="M 9.03846 0.288462L 9.03846 6.92308C 9.03846 9.13462 8.07692 10.0481 5.76923 10.0481C 3.46154 10.0481 2.5 9.13462 2.5 6.92308L 2.5 0L 0.288462 0C 0.144231 0 0 0.144231 0 0.288462L 0 7.01923C 0 10.7212 2.35577 12.0192 5.76923 12.0192C 9.18269 12.0192 11.5385 10.7212 11.5385 7.01923L 11.5385 0L 9.32692 0C 9.18269 0 9.03846 0.0961538 9.03846 0.288462Z" transform="translate(0.384613 1.24039)" fill="black"/>
</g>
<g id="XMLID_242_">
<path d="M 9.23077 1.92308C 9.42308 1.92308 9.51923 1.875 9.56731 1.73077L 10.1923 0.144231C 10.2404 0.0480769 10.1923 0 10.0962 0L 1.15385 0C 0.336538 0 0 0.240385 0 0.817308L 0 11.1058C 0 11.5865 0.240385 11.8269 0.865385 11.8269L 9.18269 11.8269C 9.375 11.8269 9.47115 11.7788 9.51923 11.6346L 10.1442 10.0481C 10.1923 9.95192 10.1442 9.90385 10.0481 9.90385L 2.45192 9.90385L 2.45192 7.78846C 2.45192 7.06731 2.83654 6.73077 3.94231 6.73077L 7.25962 6.73077C 7.45192 6.73077 7.54808 6.68269 7.59615 6.53846L 8.22115 5C 8.26923 4.90385 8.22115 4.85577 8.125 4.85577L 2.5 4.85577L 2.5 1.875L 9.23077 1.875L 9.23077 1.92308Z" transform="translate(32.3558 1.24039)" fill="black"/>
</g>
<g id="XMLID_238_">
<path fill-rule="evenodd" clip-rule="evenodd" d="M 9.18268 5.57693C 10.1442 5.04807 10.5288 4.13461 10.5288 2.98077C 10.5288 0.384613 8.41345 0 6.20193 0L 1.15384 0C 0.336548 0 0 0.240387 0 0.817322L 0 11.1058C 0 11.5865 0.240387 11.8269 0.865387 11.8269L 7.06732 11.8269C 9.42307 11.8269 11.0577 10.9135 11.0577 8.55768C 11.1058 7.11539 10.5288 5.91345 9.18268 5.57693ZM 2.5 1.875L 6.39423 1.875C 7.69232 1.875 8.07693 2.35577 8.07693 3.36539C 8.07693 4.375 7.69232 4.85577 6.39423 4.85577L 2.5 4.85577L 2.5 1.875ZM 2.5 9.90384L 6.875 9.90384C 8.26923 9.90384 8.65384 9.42307 8.65384 8.31729C 8.65384 7.21152 8.26923 6.68268 6.875 6.68268L 3.99039 6.68268C 2.88461 6.68268 2.5 7.01923 2.5 7.74036L 2.5 9.90384Z" transform="translate(16.6827 1.24039)" fill="black"/>
</g>
<g id="XMLID_235_">
<path fill-rule="evenodd" clip-rule="evenodd" d="M 8.50961 7.06732L 11.1538 11.6346C 11.2019 11.6827 11.2019 11.8269 11.1058 11.8269L 8.84616 11.8269C 8.65384 11.8269 8.60577 11.7788 8.50961 11.6346L 6.10577 7.30768L 3.94232 7.30768C 2.83655 7.30768 2.45193 7.64423 2.45193 8.36539L 2.45193 11.8269L 0.288452 11.8269C 0.144226 11.8269 0 11.6827 0 11.5385L 0 0.817322C 0 0.240387 0.336548 0 1.15384 0L 6.20193 0C 9.13461 0 10.9135 0.769226 10.9135 3.65384C 10.9135 5.86539 9.80768 6.73077 8.50961 7.06732ZM 2.40384 5.48077L 6.53845 5.48077C 8.0769 5.48077 8.41345 4.90384 8.41345 3.65384C 8.41345 2.45193 8.0769 1.875 6.53845 1.875L 2.40384 1.875L 2.40384 5.48077Z" transform="translate(46.875 1.24039)" fill="black"/>
</g>
</g>
<g id="XMLID_224_">
<g id="XMLID_232_">
<path d="M 8.79808 10.7692L 8.75 11.8269L 0 11.8269L 0 0L 8.41346 0L 8.46154 1.10577L 1.20192 1.10577L 1.20192 5.19231L 7.45192 5.19231L 7.45192 6.15385L 1.20192 6.15385L 1.20192 10.7692L 8.79808 10.7692Z" transform="translate(67.6442 1.24039)" fill="#57AD56"/>
<path d="M 8.79808 10.7692L 8.75 11.8269L 0 11.8269L 0 0L 8.41346 0L 8.46154 1.10577L 1.20192 1.10577L 1.20192 5.19231L 7.45192 5.19231L 7.45192 6.15385L 1.20192 6.15385L 1.20192 10.7692L 8.79808 10.7692L 8.79808 10.7692Z" stroke-width="0.25" transform="translate(67.6442 1.24039)" stroke="#57AD56"/>
</g>
<g id="XMLID_229_">
<path fill-rule="evenodd" clip-rule="evenodd" d="M 2.64423 8.75L 9.61539 8.75L 10.9615 11.8269L 12.3077 11.8269L 6.875 0L 5.48077 0L 0 11.8269L 1.29807 11.8269L 2.64423 8.75ZM 3.07693 7.74039L 5.625 2.01926L 6.10577 0.817322L 6.15387 0.817322L 6.63461 2.01926L 9.13461 7.74039L 3.07693 7.74039Z" transform="translate(81.0577 1.24039)" fill="#57AD56"/>
<path d="M 2.64423 8.75L 9.61539 8.75L 10.9615 11.8269L 12.3077 11.8269L 6.875 0L 5.48077 0L 0 11.8269L 1.29807 11.8269L 2.64423 8.75ZM 3.07693 7.74039L 5.625 2.01926L 6.10577 0.817322L 6.15387 0.817322L 6.63461 2.01926L 9.13461 7.74039L 3.07693 7.74039Z" stroke-width="0.25" transform="translate(81.0577 1.24039)" stroke="#57AD56"/>
</g>
<g id="XMLID_227_">
<path d="M 5.625 1.10577L 5.625 11.8269L 4.42308 11.8269L 4.42308 1.10577L 0 1.10577L 0.0480769 0L 10.0962 0L 10.0962 1.10577L 5.625 1.10577Z" transform="translate(96.3942 1.24039)" fill="#57AD56"/>
<path d="M 5.625 1.10577L 5.625 11.8269L 4.42308 11.8269L 4.42308 1.10577L 0 1.10577L 0.0480769 0L 10.0962 0L 10.0962 1.10577L 5.625 1.10577L 5.625 1.10577Z" stroke-width="0.25" transform="translate(96.3942 1.24039)" stroke="#57AD56"/>
</g>
<g id="XMLID_225_">
<path d="M 3.99038 12.3077C 2.35577 12.3077 1.05769 11.9231 0 11.2981L 0.192308 10.2404C 1.29808 10.8654 2.54808 11.25 4.03846 11.25C 6.25 11.25 7.40385 10.2404 7.40385 8.79808C 7.40385 5.67308 0.192308 7.30769 0.192308 3.26923C 0.192308 1.53846 1.49038 0 4.51923 0C 5.91346 0 7.16346 0.240385 8.17308 0.721154L 7.98077 1.73077C 6.875 1.29808 5.81731 1.05769 4.56731 1.05769C 2.21154 1.05769 1.34615 2.11538 1.34615 3.17308C 1.34615 6.15385 8.55769 4.47115 8.55769 8.70192C 8.50962 10.8173 6.97115 12.3077 3.99038 12.3077Z" transform="translate(111.058 1)" fill="#57AD56"/>
<path d="M 3.99038 12.3077C 2.35577 12.3077 1.05769 11.9231 0 11.2981L 0.192308 10.2404C 1.29808 10.8654 2.54808 11.25 4.03846 11.25C 6.25 11.25 7.40385 10.2404 7.40385 8.79808C 7.40385 5.67308 0.192308 7.30769 0.192308 3.26923C 0.192308 1.53846 1.49038 0 4.51923 0C 5.91346 0 7.16346 0.240385 8.17308 0.721154L 7.98077 1.73077C 6.875 1.29808 5.81731 1.05769 4.56731 1.05769C 2.21154 1.05769 1.34615 2.11538 1.34615 3.17308C 1.34615 6.15385 8.55769 4.47115 8.55769 8.70192C 8.50962 10.8173 6.97115 12.3077 3.99038 12.3077L 3.99038 12.3077Z" stroke-width="0.25" transform="translate(111.058 1)" stroke="#57AD56"/>
</g>
</g>
</g>
</g>
</svg>

