<svg width="16" height="16" viewBox="0 0 16 16" version="1.1" xmlns="http://www.w3.org/2000/svg" xmlns:xlink="http://www.w3.org/1999/xlink">
<g id="Canvas" fill="none">
<g id="world">
<g id="Shape">
<path fill-rule="evenodd" clip-rule="evenodd" d="M 8.27235 0.0166473L 8.27215 0.0166016L 8.27176 0.0165558C 8.20627 0.00828552 8.14066 0 8.0741 0C 8.04828 0 8.02302 0.00645447 7.99747 0.0072937C 7.97608 0.00689697 7.95481 0.0052948 7.93353 0.00369263C 7.909 0.00184631 7.88445 0 7.85965 0C 3.52589 0 0 3.52617 0 7.85965C 0 12.1937 3.52589 15.7193 7.85965 15.7193C 7.88457 15.7193 7.90924 15.7175 7.93384 15.7157C 7.95497 15.7142 7.97605 15.7127 7.99719 15.7123C 8.00326 15.7125 8.00928 15.713 8.0153 15.7136L 8.0329 15.7158C 8.04659 15.7175 8.06026 15.7193 8.0741 15.7193C 8.14431 15.7193 8.21345 15.7104 8.28252 15.7016L 8.28286 15.7016L 8.2832 15.7015L 8.30586 15.6986L 8.33628 15.6949C 12.448 15.4467 15.7193 12.0328 15.7193 7.85965C 15.7193 3.68646 12.448 0.272842 8.33628 0.0244141C 8.31496 0.0220184 8.29366 0.0193329 8.27235 0.0166473ZM 5.50681 1.40239C 4.71074 2.32141 4.064 3.64099 3.70892 5.19945C 2.60464 5.07959 1.93825 4.94008 1.66962 4.87552C 2.45 3.26408 3.82582 2.0188 5.50681 1.40239ZM 1.29768 5.79088C 1.09137 6.44379 0.979088 7.13881 0.979088 7.85965C 0.980247 8.70648 1.13882 9.54573 1.44674 10.3346C 1.76141 10.2585 2.46259 10.1128 3.60085 9.98933C 3.48014 9.31313 3.40913 8.60155 3.40913 7.85965C 3.40974 7.29297 3.44978 6.72702 3.52898 6.16589C 2.2021 6.01852 1.48519 5.8414 1.29768 5.79088ZM 1.87453 11.2418C 2.23045 11.166 2.86821 11.0512 3.81081 10.9527C 4.18161 12.3248 4.78484 13.4843 5.50736 14.3175C 3.97014 13.755 2.68253 12.6651 1.87396 11.2418L 1.87453 11.2418ZM 4.70653 10.8688C 5.21488 12.8376 6.45502 14.2981 7.29713 14.6507L 7.29713 10.7657C 6.45502 10.7758 5.43748 10.8146 4.70653 10.8688ZM 7.29713 9.78723C 6.45502 9.7979 5.30891 9.84113 4.52744 9.90175C 4.41993 9.25333 4.38934 8.56729 4.38934 7.85965C 4.38934 7.30948 4.4 6.7739 4.46653 6.25656C 5.26007 6.31944 6.45502 6.36462 7.29713 6.37585L 7.29713 9.78694L 7.29713 9.78723ZM 4.60126 5.28645C 5.35411 5.34399 6.45502 5.38666 7.29713 5.39705L 7.29713 5.39677L 7.29713 1.06891C 6.45502 1.4473 5.07144 3.09839 4.60126 5.28645ZM 14.0244 4.82161C 13.8709 4.86877 13.2488 5.04225 12.0185 5.18793C 11.7409 3.71144 11.2399 2.45334 10.5864 1.54498C 12.0845 2.19424 13.3027 3.36308 14.0244 4.82133L 14.0244 4.82161ZM 11.111 5.28506C 10.6498 3.06976 9.26203 1.40379 8.41993 1.05432L 8.41993 5.39734C 9.26203 5.38695 10.3702 5.34401 11.111 5.28506ZM 8.41993 6.37587C 9.26203 6.36491 10.4424 6.3186 11.2261 6.25348C 11.2907 6.77165 11.3069 7.30807 11.3069 7.85965C 11.3069 8.56815 11.2817 9.25531 11.1773 9.90457C 10.4056 9.84225 9.26203 9.79733 8.41993 9.78723L 8.41993 6.37587ZM 8.41993 10.7657L 8.41993 14.6653L 8.41993 14.6655C 9.26203 14.3394 10.5089 12.8662 11.0086 10.871C 10.2872 10.8154 9.26203 10.7758 8.41993 10.7657ZM 10.5864 14.1749C 11.1753 13.3564 11.6444 12.2577 11.9338 10.9673C 12.9016 11.0787 13.5113 11.2084 13.8187 11.2859C 13.0785 12.5703 11.9455 13.583 10.5864 14.1749ZM 12.1667 6.15523C 12.3144 7.43422 12.2946 8.72699 12.1078 10.0009L 12.1081 10.0006C 13.3027 10.1409 13.9823 10.3099 14.2526 10.3888C 14.5642 9.60506 14.7411 8.75313 14.7411 7.85965C 14.7407 6.9765 14.5691 6.10179 14.2358 5.28394L 14.3938 5.73026C 14.3495 5.74597 13.6797 5.97362 12.1667 6.15523Z" transform="translate(0.00112152 0.141479)" fill="white"/>
</g>
</g>
</g>
</svg>

