<svg width="24" height="24" viewBox="0 0 24 24" version="1.1" xmlns="http://www.w3.org/2000/svg" xmlns:xlink="http://www.w3.org/1999/xlink">
<g id="Canvas" fill="none">
<g id="ic/24/social/facebook">
<rect width="24" height="24" fill="#262626"/>
<g id="Shape">
<path fill-rule="evenodd" clip-rule="evenodd" d="M 16.5 0L 1.5 0C 0.660034 0 0 0.659988 0 1.50001L 0 16.5C 0 17.34 0.660034 18 1.5 18L 8.40002 18L 12 18L 16.5 18C 17.34 18 18 17.34 18 16.5L 18 1.50001C 18 0.659988 17.34 0 16.5 0ZM 9.05188 11.2609L 6.80005 11.2609L 6.80005 8.96521L 9.05188 8.96521L 9.05188 6.95653C 9.05188 5.32088 10.2904 3.94349 11.8667 3.8L 14.4 3.8L 14.4 6.09566L 12.1482 6.09566C 11.6697 6.09566 11.3037 6.46869 11.3037 6.95653L 11.3037 8.96521L 14.1185 8.96521L 14.1185 11.2609L 11.3038 11.2609L 11.3038 17.2L 9.05188 17.2L 9.05188 11.2609ZM 11.9286 17.2L 16.3215 17.2C 16.8193 17.2 17.2001 16.8193 17.2001 16.3214L 17.2001 1.67857C 17.2001 1.1807 16.8193 0.8 16.3215 0.8L 1.67859 0.8C 1.18079 0.8 0.800049 1.1807 0.800049 1.67857L 0.800049 16.3214C 0.800049 16.8193 1.18079 17.2 1.67859 17.2L 8.41431 17.2L 8.41431 11.9286L 6.07141 11.9286L 6.07141 8.41427L 8.41431 8.41427L 8.41431 6.94997C 8.41431 4.98784 9.93726 3.31855 11.8993 3.14284L 15.15 3.14284L 15.15 6.65713L 12.2214 6.65713C 12.0458 6.65713 11.9286 6.77426 11.9286 6.94997L 11.9286 8.41427L 14.8572 8.41427L 14.8572 11.9286L 11.9286 11.9286L 11.9286 17.2Z" transform="translate(3 3)" fill="white"/>
</g>
<mask id="mask0" mask-type="alpha" maskUnits="userSpaceOnUse" x="3" y="3" width="18" height="18">
<g id="Shape_2">
<path fill-rule="evenodd" clip-rule="evenodd" d="M 16.5 0L 1.5 0C 0.660034 0 0 0.659988 0 1.50001L 0 16.5C 0 17.34 0.660034 18 1.5 18L 8.40002 18L 12 18L 16.5 18C 17.34 18 18 17.34 18 16.5L 18 1.50001C 18 0.659988 17.34 0 16.5 0ZM 9.05188 11.2609L 6.80005 11.2609L 6.80005 8.96521L 9.05188 8.96521L 9.05188 6.95653C 9.05188 5.32088 10.2904 3.94349 11.8667 3.8L 14.4 3.8L 14.4 6.09566L 12.1482 6.09566C 11.6697 6.09566 11.3037 6.46869 11.3037 6.95653L 11.3037 8.96521L 14.1185 8.96521L 14.1185 11.2609L 11.3038 11.2609L 11.3038 17.2L 9.05188 17.2L 9.05188 11.2609ZM 11.9286 17.2L 16.3215 17.2C 16.8193 17.2 17.2001 16.8193 17.2001 16.3214L 17.2001 1.67857C 17.2001 1.1807 16.8193 0.8 16.3215 0.8L 1.67859 0.8C 1.18079 0.8 0.800049 1.1807 0.800049 1.67857L 0.800049 16.3214C 0.800049 16.8193 1.18079 17.2 1.67859 17.2L 8.41431 17.2L 8.41431 11.9286L 6.07141 11.9286L 6.07141 8.41427L 8.41431 8.41427L 8.41431 6.94997C 8.41431 4.98784 9.93726 3.31855 11.8993 3.14284L 15.15 3.14284L 15.15 6.65713L 12.2214 6.65713C 12.0458 6.65713 11.9286 6.77426 11.9286 6.94997L 11.9286 8.41427L 14.8572 8.41427L 14.8572 11.9286L 11.9286 11.9286L 11.9286 17.2Z" transform="translate(3 3)" fill="white"/>
</g>
</mask>
<g mask="url(#mask0)">
</g>
</g>
</g>
</svg>

