<svg width="24" height="24" viewBox="0 0 24 24" version="1.1" xmlns="http://www.w3.org/2000/svg" xmlns:xlink="http://www.w3.org/1999/xlink">
<g id="Canvas" fill="none">
<g id="ic/24/social/instagram">
<rect width="24" height="24" fill="#262626"/>
<g id="Combined Shape">
<path fill-rule="evenodd" clip-rule="evenodd" d="M 13.0326 0L 4.96729 0C 2.22827 0 0 2.22841 0 4.96735L 0 13.0326C 0 15.7717 2.22827 18 4.96729 18L 13.0326 18C 15.7717 18 18 15.7716 18 13.0326L 18 4.96735C 18.0001 2.22841 15.7717 0 13.0326 0ZM 17.0001 13.3579C 17.0001 15.3662 15.3662 17 13.3579 17L 4.64197 17C 2.63379 17.0001 1 15.3662 1 13.3579L 1 4.64212C 1 2.63392 2.63379 1 4.64197 1L 13.3578 1C 15.3661 1 17 2.63392 17 4.64212L 17.0001 13.3579ZM 4.36182 9.00021C 4.36182 6.4427 6.4425 4.36207 9 4.36207C 11.5575 4.36207 13.6381 6.4427 13.6381 9.00021C 13.6381 11.5576 11.5575 13.6381 9 13.6381C 6.4425 13.6381 4.36182 11.5576 4.36182 9.00021ZM 13.4348 2.83418C 13.5833 2.68509 13.7898 2.6 14 2.6C 14.2108 2.6 14.4174 2.68509 14.5658 2.83418C 14.7148 2.98255 14.7999 3.18909 14.7999 3.4C 14.7999 3.61018 14.7148 3.81673 14.5658 3.96582C 14.4166 4.11418 14.2108 4.2 14 4.2C 13.7898 4.2 13.5833 4.11418 13.4348 3.96582C 13.2858 3.81673 13.2 3.61025 13.2 3.4C 13.2 3.18909 13.2856 2.98255 13.4348 2.83418Z" transform="translate(3 3)" fill="white"/>
</g>
<mask id="mask0" mask-type="alpha" maskUnits="userSpaceOnUse" x="7" y="5" width="11" height="12">
<g id="Combined Shape_2">
<path fill-rule="evenodd" clip-rule="evenodd" d="M 9.073 0.234182C 9.22144 0.0850911 9.42798 0 9.63818 0C 9.849 0 10.0555 0.0850911 10.204 0.234182C 10.353 0.382545 10.4381 0.589091 10.4381 0.8C 10.4381 1.01018 10.353 1.21673 10.204 1.36582C 10.0548 1.51418 9.849 1.6 9.63818 1.6C 9.42798 1.6 9.22144 1.51418 9.073 1.36582C 8.92395 1.21673 8.83813 1.01025 8.83813 0.8C 8.83813 0.589091 8.92383 0.382545 9.073 0.234182ZM 4.63818 1.76207C 2.08069 1.76207 0 3.8427 0 6.40021C 0 8.95762 2.08069 11.0381 4.63818 11.0381C 7.19568 11.0381 9.27625 8.95762 9.27625 6.40021C 9.27625 3.8427 7.19568 1.76207 4.63818 1.76207ZM 4.63818 10.2397C 2.52087 10.2397 0.798218 8.51729 0.798218 6.4C 0.798218 4.28258 2.52075 2.56 4.63818 2.56C 6.75562 2.56 8.47827 4.28258 8.47827 6.4C 8.47827 8.51729 6.75549 10.2397 4.63818 10.2397Z" transform="translate(7.36182 5.6)" fill="white"/>
</g>
</mask>
<g mask="url(#mask0)">
</g>
</g>
</g>
</svg>

