<svg width="24" height="24" viewBox="0 0 24 24" version="1.1" xmlns="http://www.w3.org/2000/svg" xmlns:xlink="http://www.w3.org/1999/xlink">
<g id="Canvas" fill="none">
<g id="ic/24/social/twitter">
<rect width="24" height="24" fill="#262626"/>
<g id="Shape">
<path fill-rule="evenodd" clip-rule="evenodd" d="M 17.5303 1.59487C 17.6525 1.56362 17.8053 1.59487 17.8969 1.6886C 17.9885 1.78233 18.019 1.93856 17.9885 2.06358C 17.7136 2.96975 17.1637 3.62596 16.4915 3.96969L 16.4915 4.06342C 16.4915 10.0942 12.092 15 6.71484 15C 3.69019 15 1.24609 14.4688 0.14624 13.5626C 0.0239258 13.4376 -0.0371094 13.2814 0.0239258 13.0939C 0.085083 12.9377 0.237793 12.8127 0.421143 12.8127C 2.22375 12.7814 3.38464 12.344 4.27063 11.8127C 2.55981 11.594 1.49048 10.7503 0.940552 9.1567C 0.879395 9.00047 0.940552 8.84427 1.06274 8.7505C 1.18494 8.65674 1.36829 8.65674 1.49048 8.71925C 1.94873 9.03172 2.40698 9.09423 2.95691 9.09423C 1.7959 8.37555 0.726685 7.18813 0.29895 5.71952C 0.268311 5.56328 0.329468 5.37582 0.45166 5.31331C 0.60437 5.21959 0.757202 5.25084 0.879395 5.34457C 1.21545 5.62579 1.58215 5.81328 2.13208 5.90701C 0.940552 4.65711 0.207275 2.81352 1.24597 0.782429L 1.42932 0.407444L 1.73474 0.71992C 3.62903 2.75101 5.37048 3.68843 8.54797 4.31338L 8.54797 4.1884C 8.54797 1.90735 10.2894 0.0324965 12.4586 0.00124168C 13.314 0.00124168 14.5055 0.626192 14.9944 0.907412C 15.006 0.907412 15.0177 0.911965 15.0277 0.915858C 15.0438 0.922164 15.0555 0.926736 15.0555 0.907412C 15.6665 0.719955 16.3998 0.407481 17.2552 0.0324965C 17.3774 -0.0299768 17.5303 0.00127792 17.6218 0.095006C 17.7136 0.18877 17.7441 0.313753 17.683 0.46999C 17.5303 0.907448 17.2859 1.37616 16.9192 1.81362L 17.5303 1.59487ZM 15.7355 3.73772L 15.9133 3.67735C 16.4764 3.46612 16.8025 3.01342 17.01 2.62114L 15.854 3.01346C 15.7058 3.07383 15.528 3.01346 15.4688 2.86256C 15.4094 2.71166 15.4391 2.53058 15.5576 2.44005C 16.0319 2.0477 16.3876 1.62519 16.6543 1.1725C 16.0615 1.41392 15.528 1.62519 15.0834 1.77609C 14.9055 1.83643 14.7277 1.80624 14.5498 1.71572L 14.5314 1.70549C 14.1835 1.51201 13.0852 0.9014 12.4158 0.931043C 10.6373 0.961229 9.2146 2.50039 9.2146 4.3715L 9.2146 5.21651L 8.85901 5.15614C 5.59851 4.55255 3.79053 3.67735 1.89355 1.77606C 1.00427 4.06971 2.84204 5.66921 3.46448 6.1219L 4.20544 6.66515L 3.28662 6.66515C 2.69373 6.66515 2.04175 6.60478 1.44885 6.33317C 2.10095 7.7214 3.43481 8.7475 4.56116 9.07948L 4.47217 9.68307C 4.23511 9.68307 3.99792 9.68307 3.76086 9.71326C 3.13843 9.74344 2.5752 9.74344 2.04175 9.56236C 2.63452 10.7092 3.672 11.192 5.36145 11.192L 6.25061 11.192L 5.50964 11.7353C 4.59082 12.4596 3.40515 13.1235 1.35999 13.2744C 2.33813 13.7573 4.14612 14.21 6.84338 14.21C 11.4647 14.21 15.7355 9.49899 15.7355 4.25079L 15.7355 3.73772Z" transform="translate(3 4.5)" fill="white"/>
</g>
<mask id="mask0" mask-type="alpha" maskUnits="userSpaceOnUse" x="3" y="4" width="18" height="16">
<g id="Shape_2">
<path fill-rule="evenodd" clip-rule="evenodd" d="M 17.5303 1.59487C 17.6525 1.56362 17.8053 1.59487 17.8969 1.6886C 17.9885 1.78233 18.019 1.93856 17.9885 2.06358C 17.7136 2.96975 17.1637 3.62596 16.4915 3.96969L 16.4915 4.06342C 16.4915 10.0942 12.092 15 6.71484 15C 3.69019 15 1.24609 14.4688 0.14624 13.5626C 0.0239258 13.4376 -0.0371094 13.2814 0.0239258 13.0939C 0.085083 12.9377 0.237793 12.8127 0.421143 12.8127C 2.22375 12.7814 3.38464 12.344 4.27063 11.8127C 2.55981 11.594 1.49048 10.7503 0.940552 9.1567C 0.879395 9.00047 0.940552 8.84427 1.06274 8.7505C 1.18494 8.65674 1.36829 8.65674 1.49048 8.71925C 1.94873 9.03172 2.40698 9.09423 2.95691 9.09423C 1.7959 8.37555 0.726685 7.18813 0.29895 5.71952C 0.268311 5.56328 0.329468 5.37582 0.45166 5.31331C 0.60437 5.21959 0.757202 5.25084 0.879395 5.34457C 1.21545 5.62579 1.58215 5.81328 2.13208 5.90701C 0.940552 4.65711 0.207275 2.81352 1.24597 0.782429L 1.42932 0.407444L 1.73474 0.71992C 3.62903 2.75101 5.37048 3.68843 8.54797 4.31338L 8.54797 4.1884C 8.54797 1.90735 10.2894 0.0324965 12.4586 0.00124168C 13.314 0.00124168 14.5055 0.626192 14.9944 0.907412C 15.006 0.907412 15.0177 0.911965 15.0277 0.915858C 15.0438 0.922164 15.0555 0.926736 15.0555 0.907412C 15.6665 0.719955 16.3998 0.407481 17.2552 0.0324965C 17.3774 -0.0299768 17.5303 0.00127792 17.6218 0.095006C 17.7136 0.18877 17.7441 0.313753 17.683 0.46999C 17.5303 0.907448 17.2859 1.37616 16.9192 1.81362L 17.5303 1.59487ZM 15.7355 3.73772L 15.9133 3.67735C 16.4764 3.46612 16.8025 3.01342 17.01 2.62114L 15.854 3.01346C 15.7058 3.07383 15.528 3.01346 15.4688 2.86256C 15.4094 2.71166 15.4391 2.53058 15.5576 2.44005C 16.0319 2.0477 16.3876 1.62519 16.6543 1.1725C 16.0615 1.41392 15.528 1.62519 15.0834 1.77609C 14.9055 1.83643 14.7277 1.80624 14.5498 1.71572L 14.5314 1.70549C 14.1835 1.51201 13.0852 0.9014 12.4158 0.931043C 10.6373 0.961229 9.2146 2.50039 9.2146 4.3715L 9.2146 5.21651L 8.85901 5.15614C 5.59851 4.55255 3.79053 3.67735 1.89355 1.77606C 1.00427 4.06971 2.84204 5.66921 3.46448 6.1219L 4.20544 6.66515L 3.28662 6.66515C 2.69373 6.66515 2.04175 6.60478 1.44885 6.33317C 2.10095 7.7214 3.43481 8.7475 4.56116 9.07948L 4.47217 9.68307C 4.23511 9.68307 3.99792 9.68307 3.76086 9.71326C 3.13843 9.74344 2.5752 9.74344 2.04175 9.56236C 2.63452 10.7092 3.672 11.192 5.36145 11.192L 6.25061 11.192L 5.50964 11.7353C 4.59082 12.4596 3.40515 13.1235 1.35999 13.2744C 2.33813 13.7573 4.14612 14.21 6.84338 14.21C 11.4647 14.21 15.7355 9.49899 15.7355 4.25079L 15.7355 3.73772Z" transform="translate(3 4.5)" fill="white"/>
</g>
</mask>
<g mask="url(#mask0)">
</g>
</g>
</g>
</svg>

