<svg width="192" height="21" viewBox="0 0 192 21" version="1.1" xmlns="http://www.w3.org/2000/svg" xmlns:xlink="http://www.w3.org/1999/xlink">
<g id="Canvas" fill="none">
<g id="white-logo">
<g id="XMLID_234_">
<g id="XMLID_243_">
<path d="M 14.4615 0.461538L 14.4615 11.0769C 14.4615 14.6154 12.9231 16.0769 9.23077 16.0769C 5.53846 16.0769 4 14.6154 4 11.0769L 4 0L 0.461538 0C 0.230769 0 0 0.230769 0 0.461538L 0 11.2308C 0 17.1538 3.76923 19.2308 9.23077 19.2308C 14.6923 19.2308 18.4615 17.1538 18.4615 11.2308L 18.4615 0L 14.9231 0C 14.6923 0 14.4615 0.153846 14.4615 0.461538Z" transform="translate(0.615387 1.38464)" fill="white"/>
</g>
<g id="XMLID_242_">
<path d="M 14.7692 3.07692C 15.0769 3.07692 15.2308 3 15.3077 2.76923L 16.3077 0.230769C 16.3846 0.0769231 16.3077 0 16.1538 0L 1.84615 0C 0.538462 0 0 0.384615 0 1.30769L 0 17.7692C 0 18.5385 0.384615 18.9231 1.38462 18.9231L 14.6923 18.9231C 15 18.9231 15.1538 18.8462 15.2308 18.6154L 16.2308 16.0769C 16.3077 15.9231 16.2308 15.8462 16.0769 15.8462L 3.92308 15.8462L 3.92308 12.4615C 3.92308 11.3077 4.53846 10.7692 6.30769 10.7692L 11.6154 10.7692C 11.9231 10.7692 12.0769 10.6923 12.1538 10.4615L 13.1538 8C 13.2308 7.84615 13.1538 7.76923 13 7.76923L 4 7.76923L 4 3L 14.7692 3L 14.7692 3.07692Z" transform="translate(51.7692 1.38464)" fill="white"/>
</g>
<g id="XMLID_238_">
<path fill-rule="evenodd" clip-rule="evenodd" d="M 14.6923 8.9231C 16.2308 8.0769 16.8462 6.61536 16.8462 4.76929C 16.8462 0.615356 13.4615 0 9.92307 0L 1.84616 0C 0.538452 0 0 0.384644 0 1.30774L 0 17.7693C 0 18.5385 0.384613 18.9231 1.38461 18.9231L 11.3077 18.9231C 15.0769 18.9231 17.6923 17.4615 17.6923 13.6923C 17.7692 11.3846 16.8462 9.46155 14.6923 8.9231ZM 4 3L 10.2308 3C 12.3077 3 12.9231 3.76929 12.9231 5.38464C 12.9231 7 12.3077 7.76929 10.2308 7.76929L 4 7.76929L 4 3ZM 4 15.8461L 11 15.8461C 13.2308 15.8461 13.8462 15.0769 13.8462 13.3076C 13.8462 11.5385 13.2308 10.6923 11 10.6923L 6.38461 10.6923C 4.61539 10.6923 4 11.2307 4 12.3845L 4 15.8461Z" transform="translate(26.6923 1.38464)" fill="white"/>
</g>
<g id="XMLID_235_">
<path fill-rule="evenodd" clip-rule="evenodd" d="M 13.6154 11.3077L 17.8462 18.6154C 17.9231 18.6923 17.9231 18.9231 17.7692 18.9231L 14.1538 18.9231C 13.8462 18.9231 13.7692 18.8462 13.6154 18.6154L 9.76923 11.6923L 6.30768 11.6923C 4.53845 11.6923 3.92307 12.2307 3.92307 13.3846L 3.92307 18.9231L 0.461548 18.9231C 0.230774 18.9231 0 18.6923 0 18.4615L 0 1.30774C 0 0.384644 0.538452 0 1.84616 0L 9.92307 0C 14.6154 0 17.4615 1.23071 17.4615 5.84619C 17.4615 9.38464 15.6923 10.7693 13.6154 11.3077ZM 3.84616 8.76929L 10.4615 8.76929C 12.9231 8.76929 13.4615 7.84619 13.4615 5.84619C 13.4615 3.9231 12.9231 3 10.4615 3L 3.84616 3L 3.84616 8.76929Z" transform="translate(75 1.38464)" fill="white"/>
</g>
</g>
<g id="XMLID_224_">
<g id="XMLID_232_">
<path d="M 14.0769 17.2308L 14 18.9231L 0 18.9231L 0 0L 13.4615 0L 13.5385 1.76923L 1.92308 1.76923L 1.92308 8.30769L 11.9231 8.30769L 11.9231 9.84615L 1.92308 9.84615L 1.92308 17.2308L 14.0769 17.2308Z" transform="translate(108.231 1.38464)" fill="#57AD56"/>
<path d="M 14.0769 17.2308L 14 18.9231L 0 18.9231L 0 0L 13.4615 0L 13.5385 1.76923L 1.92308 1.76923L 1.92308 8.30769L 11.9231 8.30769L 11.9231 9.84615L 1.92308 9.84615L 1.92308 17.2308L 14.0769 17.2308L 14.0769 17.2308Z" stroke-width="0.25" transform="translate(108.231 1.38464)" stroke="#57AD56"/>
</g>
<g id="XMLID_229_">
<path fill-rule="evenodd" clip-rule="evenodd" d="M 4.23077 14L 15.3846 14L 17.5385 18.9231L 19.6923 18.9231L 11 0L 8.76923 0L 0 18.9231L 2.07693 18.9231L 4.23077 14ZM 4.92307 12.3846L 9 3.23083L 9.76923 1.30774L 9.84613 1.30774L 10.6154 3.23083L 14.6154 12.3846L 4.92307 12.3846Z" transform="translate(129.692 1.38464)" fill="#57AD56"/>
<path d="M 4.23077 14L 15.3846 14L 17.5385 18.9231L 19.6923 18.9231L 11 0L 8.76923 0L 0 18.9231L 2.07693 18.9231L 4.23077 14ZM 4.92307 12.3846L 9 3.23083L 9.76923 1.30774L 9.84613 1.30774L 10.6154 3.23083L 14.6154 12.3846L 4.92307 12.3846Z" stroke-width="0.25" transform="translate(129.692 1.38464)" stroke="#57AD56"/>
</g>
<g id="XMLID_227_">
<path d="M 9 1.76923L 9 18.9231L 7.07692 18.9231L 7.07692 1.76923L 0 1.76923L 0.076923 0L 16.1538 0L 16.1538 1.76923L 9 1.76923Z" transform="translate(154.231 1.38464)" fill="#57AD56"/>
<path d="M 9 1.76923L 9 18.9231L 7.07692 18.9231L 7.07692 1.76923L 0 1.76923L 0.076923 0L 16.1538 0L 16.1538 1.76923L 9 1.76923L 9 1.76923Z" stroke-width="0.25" transform="translate(154.231 1.38464)" stroke="#57AD56"/>
</g>
<g id="XMLID_225_">
<path d="M 6.38462 19.6923C 3.76923 19.6923 1.69231 19.0769 0 18.0769L 0.307692 16.3846C 2.07692 17.3846 4.07692 18 6.46154 18C 10 18 11.8462 16.3846 11.8462 14.0769C 11.8462 9.07692 0.307692 11.6923 0.307692 5.23077C 0.307692 2.46154 2.38462 0 7.23077 0C 9.46154 0 11.4615 0.384615 13.0769 1.15385L 12.7692 2.76923C 11 2.07692 9.30769 1.69231 7.30769 1.69231C 3.53846 1.69231 2.15385 3.38462 2.15385 5.07692C 2.15385 9.84615 13.6923 7.15385 13.6923 13.9231C 13.6154 17.3077 11.1538 19.6923 6.38462 19.6923Z" transform="translate(177.692 1)" fill="#57AD56"/>
<path d="M 6.38462 19.6923C 3.76923 19.6923 1.69231 19.0769 0 18.0769L 0.307692 16.3846C 2.07692 17.3846 4.07692 18 6.46154 18C 10 18 11.8462 16.3846 11.8462 14.0769C 11.8462 9.07692 0.307692 11.6923 0.307692 5.23077C 0.307692 2.46154 2.38462 0 7.23077 0C 9.46154 0 11.4615 0.384615 13.0769 1.15385L 12.7692 2.76923C 11 2.07692 9.30769 1.69231 7.30769 1.69231C 3.53846 1.69231 2.15385 3.38462 2.15385 5.07692C 2.15385 9.84615 13.6923 7.15385 13.6923 13.9231C 13.6154 17.3077 11.1538 19.6923 6.38462 19.6923L 6.38462 19.6923Z" stroke-width="0.25" transform="translate(177.692 1)" stroke="#57AD56"/>
</g>
</g>
</g>
</g>
</svg>

